<?xml version="1.0" encoding="UTF-8" standalone="no"?>
<svg
   version="1.1"
   width="830"
   height="760"
   viewBox="0 0 830 760"
   id="zip_crab"
   xmlns="http://www.w3.org/2000/svg"
   xmlns:svg="http://www.w3.org/2000/svg"
   xmlns:rdf="http://www.w3.org/1999/02/22-rdf-syntax-ns#"
   xmlns:cc="http://creativecommons.org/ns#">
   <g
      id="zip_crab_group">
      <path
         id="orange"
         fill="#fd9843"
         d="m 615.34159,437.28526 c -13.20971,1.78849 -18.24945,2.50796 -33.44549,10.2195 -38.95684,15.22639 -88.03165,26.43181 -129.50245,30.12906 -43.64237,3.89086 -117.1903,-0.9192 -150.8617,-13.5311 -16.14166,-6.04599 -65.91507,-22.27694 -80.7286,-29.15932 -4.31751,11.76213 -6.97045,33.07336 -7.73948,41.66693 7.74719,10.58193 12.6135,17.04116 15.30859,20.04499 -8.44324,13.15702 -9.58785,10.66457 -14.9034,13.00349 -5.57469,-5.90402 -16.03666,-18.49305 -20.86063,-32.44557 C 187.78446,463.26072 187.12559,434.31519 186,422 c -9.03397,-5.47623 -16,-5 -26,-7 0,5 0,9 0.57218,21.53534 C 164.8342,480.42415 190,600 167.62375,608.01891 149.77896,614.41389 105.44662,524.51488 85,490 77.37711,502.70482 52.000002,556 42,546 25,529 44,455 51,433 48.706643,409.14774 43.358876,406.18752 42.200421,403.36195 30.662946,368.05417 18.118768,331.45437 20.761494,293.92634 37.561975,259.13437 65.029049,262.35147 88.788076,267.54783 100,270 100,270 105,265 c 5,-25 -24.900495,-59.66823 -15,-85 5,-10 55,5 65,0 0,-10.35395 0,-55 5,-80 25,0 65,20 80,5 20,-20 32.14599,-51.90999 40,-65 30,0 25,15 55,25 5.54036,-1.38509 25,-5 30,-10 15,-15 46.19348,-40.021904 53.86769,-44.425469 18.06884,14.651065 34.81086,44.110902 54.16186,49.942217 28.23152,-7.909082 59.013,-27.727679 77.33286,-36.802605 C 558.42005,38.001771 575,75 585,90 c 17.94099,11.23217 45,-2 80,-7 0,35 -10,62 0,82 5,10 45,10 65,25 -15,40 -26,42 -21,57 0,0 4,43 9,43 25,-22 64.08625,-20.14043 85.09445,2.00456 C 839.21013,330.07453 799.40065,392.7666 785,445 c -3.43943,12.47534 24.31076,89.86901 6,115 -5.8888,8.08221 -36,-50 -41,-50 -7.07107,0 -66.83824,117.29106 -86,110 -8.64955,-11.26955 -1.60802,-75.82782 2.06798,-108.29109 C 670.34963,463.45453 677,430 680,410 c -9.05079,-0.24448 -30,14 -31.39988,18.02699 -2.30814,9.98762 -11.23701,55.76676 -13.0148,60.2408 -2.30542,5.80191 -32.12951,27.28152 -36.55169,26.10963 -2.63535,-0.69837 -6.66951,-17.7424 -7.37949,-15.02701 -1.15517,4.41808 24.27377,-21.91735 21.34203,-26.45939 M 451.46608,583.40129 c 11.07467,-1.39766 35.18379,-9.01972 47.58164,-19.30856 13.97212,-11.59533 16.30051,-28.22262 14.83571,-30.29205 -2.61912,-3.70024 -49.66754,17.71387 -63.56946,25.03431 -1.53298,-12.28549 17.07632,-53.88624 34.28928,-62.4505 12.43381,-6.1864 30.7299,-6.05018 47.20133,-7.8724 19.70234,-2.17966 50.08615,5.61597 57.94106,21.22887 7.92604,15.75426 1.38914,42.48001 -3.96617,51.86617 -7.45983,13.07473 -23.86907,22.90789 -38.5653,29.86158 -15.72232,7.4392 -34.53331,12.16418 -50.86502,11.64253 -15.27883,-0.48802 -33.86675,-9.9395 -44.88307,-19.70995 z m -116.67745,10.0651 c -10.20796,3.28339 -44.45149,4.13008 -53.64618,0.96388 -11.56832,-3.98356 -37.82839,-14.59043 -49.58417,-29.89707 -8.76804,-11.41644 -10.99734,-4.87441 -12.00328,-41.48305 -0.83213,-30.28341 43.3728,-33.81798 61.28598,-34.04258 17.52533,-0.21974 37.84658,-3.05544 52.09078,7.15671 15.0414,10.78369 32.30726,34.74401 24.81473,49.66905 -12.22197,-5.36374 -38.83158,-16.0616 -57.8725,-16.30811 8.98202,30.40025 37.43484,38.52099 57.18464,39.08689 -8.91939,21.27696 -15.36584,22.63356 -22.27,24.85428 z"
      />
      <path
         id="orange_shade"
         fill="#f28331"
         d="m 481.866,600.0404 c -11.3986,1.6033 -33.2256,-14.7606 -5.1951,-11.1641 23.41,5.5346 47.832,1.2352 69.1071,-10.1165 10.1472,-5.2746 49.8884,-30.2366 32.5301,-7.3583 -11.0909,12.1815 -28.5592,16.1496 -41.6061,22.5394 -14.3476,5.181 -37.8189,7.4599 -54.836,6.0995 z m -178.7338,-4.4511 c -15.3967,-1.9357 -33.9245,-6.2668 -47.3206,-10.6223 -7.9447,-4.7679 -29.6028,-20.5395 -14.8364,-22.5201 22.2749,13.3669 48.0944,23.5182 74.7848,22.895 9.1462,-0.5653 51.6135,-13.9125 25.5327,2.7622 -11.6346,7.2753 -22.7627,7.1683 -38.1605,7.4852 z m 70.6983,-120.5096 c -39.4624,-4.3599 -78.7401,-13.6342 -114.489,-30.8573 -11.2146,-3.999 -22.2517,-8.3221 -32.2033,-15.7655 13.6026,-12.7333 32.3172,5.6782 47.6652,8.4546 51.8544,18.1154 106.9933,28.7589 162.0586,23.1827 30.2482,-1.5026 59.5771,-9.2186 89.4274,-13.9043 20.9459,-5.2487 41.2601,-12.6716 61.5072,-20.0786 10.8011,1.2131 36.9094,3.0335 12.6102,9.4749 -31.7212,13.9576 -64.9686,24.1931 -98.8475,30.5473 -41.6296,9.8699 -85.1721,10.0368 -127.7288,8.9462 z m 273.837,-50.5863 C 645.17395,413.79025 669.61882,398.51377 678,394 c 2.04609,-1.10194 -1,10 -1,10 0,0 -20.6476,20.366 -29.3325,20.4934 z M 185.5241,417.9311 C 157.3338,406.85953 154.1469,402.5226 152,381 c 12.8169,6.7812 37.7758,19.9791 33.5241,36.9311 z" />
      <path
         id="shade"
         fill="#fda754"
         d="m 683.16753,180.26791 c 7.54195,-9.07382 38.64505,6.16272 41.1336,7.51423 -6.26404,7.28497 -33.26338,1.1676 -40.93696,1.53858 -2.19369,-4.42981 -1.70761,-6.97183 -0.19664,-9.05281 z m -588.874347,2.79207 c 1.870193,-4.76015 41.309757,-1.90628 42.791657,5.91359 -0.6333,2.29789 -14.64565,3.03478 -21.96619,2.97815 -6.45521,-0.35672 -25.213919,-0.79599 -20.825467,-8.89174 z m 89.028247,-5.27969 c -5.89193,-4.98307 -5.37366,-10.93078 -6.12328,-17.90434 11.32702,-19.96398 33.69053,-31.46656 48.89271,-41.58485 0,0 12.85992,-9.8185 19.2427,-13.65078 6.38278,-3.83228 14.92937,-7.274439 22.55181,-10.560799 14.05797,-6.061002 28.26479,-11.817846 42.71551,-16.871473 6.63169,-2.319199 7.84814,-3.967674 20.15582,-6.161588 11.72528,-2.090097 19.16559,-5.499171 31.5222,-8.694629 4.44871,-1.15045 6.38786,-2.660894 16.16859,-2.660894 9.48069,0 11.73459,0.999368 18.29816,3.132921 7.8337,2.546426 15.0751,7.685927 15.0751,11.017192 0,3.817639 -5.06115,7.543384 -15.07442,10.681304 -5.26747,1.650704 -20.47534,7.887913 -34.34653,12.51639 -60.57618,20.212796 -91.56262,32.626416 -127.53216,55.449046 -21.98659,13.95044 -34.28317,20.50854 -41.79239,23.55982 -5.67799,2.30718 -6.82563,3.25913 -9.75382,1.73268 z m -16.90916,-76.5561 c 9.03655,5.9274 6.3,48.52015 -3.26852,58.73546 -0.78095,-10.03862 -6.93179,-56.8251 3.26852,-58.73546 z m 444.07765,-0.24896 c -1.50413,-1.675688 -1.06019,-3.839728 0.95503,-4.676717 10.15439,-2.731698 50.50745,-13.664562 52.4608,-6.280866 -0.15605,8.68479 -43.45121,12.427393 -53.41583,10.957583 z M 264.94133,81.485401 c 3.33947,-10.133704 16.44907,-38.019062 21.45535,-38.095714 12.50153,0.770714 -0.30721,19.793103 -4.19306,27.538133 -3.7611,6.101293 -14.87021,14.721032 -17.26229,10.557581 z M 512.1353,56.635187 c -1.34255,-0.585109 -5.84261,-2.390931 -6.44665,-3.118746 7.24777,-6.993369 35.93297,-30.489207 42.85415,-24.132513 1.14193,1.14193 5.50567,2.871961 4.52198,4.379556 -2.41271,3.697646 -28.49808,21.663004 -34.66154,24.238263 -3.41905,1.42857 -3.08353,0.02127 -6.26794,-1.366558 z M 379.62179,48.215474 c -0.77734,-0.936642 2.76687,-3.656732 13.53598,-13.611192 18.59239,-17.185937 21.94521,-21.937047 28.60054,-20.632391 6.31852,1.238628 -3.20346,8.352499 -16.17126,20.783907 -3.62332,3.862144 -20.10678,19.284577 -25.96526,13.459676 z" />
      <path
         id="border"
         fill="#ca5224"
         d="m 655.5,137.3 c -0.4,0.5 -1.2,1 -1.7,1 -0.5,0 -5,-3.9 -10,-8.4 -5,-4.5 -14.4,-13 -20.9,-18.8 -6.6,-5.9 -12.4,-9.2 -11.7,-12.9 0.6,-3.5 43.8,-11.2 49.9,-9.9 3.9,2.7 -4.7,47.9 -5.6,49 z m -476.8,7.1 c -4.5,4 -9.5,8.5 -11.2,10 l -3.1,2.7 -0.5,-1.9 c -0.3,-1.1 -0.4,-12.4 -0.2,-25.2 0.2,-21.5 0.3,-23.4 1.8,-25 1,-1.1 2.5,-1.7 4.4,-1.7 3.3,0 36.6,9.3 40.4,11.2 l 2.4,1.3 -3.2,2.5 c -8.9,7 -23.7,19.5 -30.8,26.1 z m 542.9,47.8 c -1,6.6 -9.5,30.1 -14.1,34.8 -6.2,-7.7 -16.9,-35.1 -24.1,-46.7 2.5,-0.9 35.8,1.9 38.2,11.9 z m -600.4,21.9 c -7.7,12 -14,21.8 -14.2,21.8 -0.2,0 -1.7,-4.1 -3.3,-9.1 -6.3,-19.5 -10.6,-40.7 -8.8,-43.6 0.5,-0.8 2.1,-1.5 3.8,-1.6 3,-0.3 17.1,2.1 29.2,4.8 6.7,1.6 7.2,1.8 7.2,3.8 0,1.3 -5.2,10.1 -13.9,23.9 z M 44.4,543.5 c -15.419461,-13.13975 -0.485971,-71.80336 6,-97.2 6.414253,3.29057 26.194801,36.85298 28.250701,47.10143 C 71.162552,506.34162 52.475127,550.38125 44.4,543.5 Z m 748.2,8.5 c -0.6,2.9 -0.9,3.3 -3.3,3.5 -2.2,0.2 -3.2,-0.3 -5.4,-2.6 -8.05419,-14.95185 -19.53914,-32.18246 -28.1,-46.3 0,-0.6 6.2,-12 13.8,-25.4 7.6,-13.4 13.9,-23.6 13.9,-22.7 5.80874,27.65997 13.98102,65.96939 9.1,93.5 z m -472.5,41 c -11.1,1 -38.1,1 -52.1,-6 0,0 -33.32064,-17.91578 -41,-33.9 -6.38105,-13.28186 -8.71796,-31.83724 -0.7,-44.2 8.07349,-12.44839 34.23734,-16.64088 40.92414,-17.50734 13.24258,-1.75921 35.30208,-3.70868 49.67586,1.10734 13.79419,4.62182 19.33104,10.66151 27.6,20.9 2.94603,3.64772 13.10077,26.41559 11.5,29 -7.58839,-4.19371 -15.90516,-8.06582 -22.8,-10.6 -13.8,-5.1 -24.6,-7.4 -30.4,-6.6 -6.9,1.1 -7.5,4.3 -2.5,13.9 5.3,9.9 10.5,16 18,20.9 12,7.7 16.2,9 29.3,9.1 3.9,0 7.4,-0.4 7.4,-0.1 -0.54839,4.04613 -3.33073,7.16527 -5,10 -5.22428,8.87178 -20.43031,12.32435 -29.9,14 z m 246.8,-19.4 c -42,26.8 -85.2,27.5 -109.5,10.5 11.6,-0.4 30.5,-9.2 39.6,-17.1 7.3,-7.6 19.2,-18.8 18.6,-30.7 -0.2,-2.2 -0.5,-4.4 -4,-5.1 -14.4,-2.9 -38.3,8.5 -51.6,17.8 -8,7 -9,6 -6,-3 3.2,-12.4 11.01348,-30.94292 23.1,-41 10.0245,-8.34129 23.97617,-11.25577 36.9,-13 16.63022,-0.60878 56.40362,0.30726 68.7,11.8 6.24865,5.84026 5.97445,14.24874 6.5,20.8 1.3,15.7 -4.4,38.4 -22.3,49 z m 110.2,35.5 c -7.1,8.1 -10.3,7.5 -12.9,-2.6 -1.6,-5.8 -1.5,-39.8 0.1,-55.4 2.3,-21.1 6.6,-41.4 8.5,-62.6 3.2,-32.6 7.8,-55.9 16.5,-83.3 11.4,-36.3 15.3,-51.3 13.9,-53.6 -1.1,-1.8 -3.2,-2.1 -5.8,-1 -10.85415,15.14521 -13.52482,30.2921 -22.4,49.4 -5.14585,11.07882 -17,16.9 -22.7,19.4 -6.6,3 -7.4,4.5 -9,16.3 -4.6,24.4 -6.1,32.7 -7,37.9 -2.1,12.6 -3.9,15.8 -12.1,21.9 -2.6,1.9 -7.1,5.4 -10,7.7 -4.9,4 -12.7,8.5 -14.5,8.5 -1.8,0 -4,-9.4 -4.7,-10.1 -1.2,-1.2 -0.6,-2 7.2,-10 10.8,-11.3 13.8,-15.1 14.5,-19.2 1.05755,-7.70627 2.79872,-39.76496 -1.3,-41.7 -1.1,-0.5 -10,2.5 -15.4,5.2 -1.8,0.9 -14.2,5.7 -27.6,10.7 -26,9.7 -35.3,12.3 -72.9,20.2 -27.6,5.8 -36.1,6.7 -77.7,8.4 -28.2,1.1 -45.5,0.6 -66,-2.2 -22.9,-3 -27.3,-4 -51.5,-11.4 -23.1,-7.2 -69.9,-26.3 -72.2,-29.6 -1.6,-2.3 -8,-5.1 -10.2,-4.4 -2.5,0.7 -3.9,2 -4.8,4.2 -2.73222,13.26609 -5.92834,34.88695 -4.75245,45.94668 2.1333,4.25331 15.77007,18.99572 13.35245,20.35332 -4.04451,2.72484 -7.10499,5.10375 -11.1,8.1 -6.37468,-4.66978 -9.90126,-12.59008 -13.8,-17.9 -5.4,-7.2 -6.8,-11.6 -8.3,-26.2 -1.2,-11.9 -2.8,-32.3 -2.9,-35 L 188,414 c -17,-4 -17,-4 -26,-13 -27.2,-70.5 -27.6,-71.1 -30,-71.3 -3.3,-0.4 -5.1,1.6 -5.1,5.5 0,3.3 5.7,20.7 8.2,24.8 1.5,2.6 16.2,47.7 17.8,54.5 5.6,25.3 6.21441,32.65578 8.2,50.4 10.61569,94.86721 11.3,98.3 10.6,112.6 -0.76032,5.7703 1.57304,23.99543 -7.8,24.5 -3.6,0.1 -10,-8.8 -25.6,-35.5 -15.6,-26.7 -20.1,-34.1 -20.4,-33.6 -46.8,-77.1 -53.5,-89.7 -59.3,-101.4 -11.9,-24 -14.8,-31.8 -27,-74.3 -9.3,-32.4 -10,-36 -9.3,-48.1 0.5,-11 1.4,-13.4 7.6,-22.1 6.4,-8.9 15.8,-15.8 24.2,-17.6 9.3,-2.1 20,-2.5 27.9,-1.3 14,2.3 22.69976,10.71628 32,18.9 5.70645,5.02138 9,13 14,18 0.8,-10.6 -2.2,-23.3 -12.9,-33 -3.3,-3 -6.2,-6 -6.5,-6.6 -1,-2.6 13.3,-32.2 23.3,-48.2 11.4,-18.2 18.8,-27.5 41.7,-51.9 21.6,-23.2 30,-30.1 62.3,-51.7 10.5,-7 19.9,-13.3 20.9,-14.1 1,-0.9 3.9,-6.8 6.8,-14.1 5.7,-14.1 16.1,-35.3 19.2,-39 1.2,-1.4 2.9,-2.5 4,-2.5 1.1,0 8,4.5 17.2,11.1 8.4,6.1 17.3,12.4 19.7,14 l 4.3,2.9 c 13.1,-2.2 24,-4 36.9,-8.7 6.3,-3.9 15.8,-15.6 15.8,-15.6 22.9,-22.4 34.9,-33 37.5,-33 1.7,0 4.7,2.6 14.3,12.5 11.2,11.4 15.8,17.3 24.1,30.7 1.1,1.8 2.6,2.3 15.1,4.7 13.5,2.6 14,2.7 18.2,1.4 2.6,-0.7 6.5,-2.9 9.6,-5.4 5.6,-4.3 29.3,-20.2 38,-25.5 13,-7.7 15.3,-5 27.1,32.5 3.7,11.6 6.7,21.2 6.8,21.3 0.1,0 10.56258,6.425716 15.6,10 15.25962,10.82741 29.69393,20.50625 44.2,34.6 24.19393,23.50625 39.327,44.38673 54.7,75.7 11.72701,23.88676 17.1,39.4 21.9,63 1.5,7.3 2.4,14.3 2.4,18.5 0,6.1 -0.2,7.1 -3.1,12.6 -1.7,3.2 -3.8,7 -4.6,8.4 -0.8,1.4 -1.3,3.1 -1,3.9 2.5,2.5 3.3564,0.27027 7.8,-6.2 7.81886,-11.38496 27.62398,-23.31439 39.71211,-24.45548 24.13318,-2.27812 28.79181,-2.25179 35.28789,1.25548 14.80393,7.99273 22.5,15.2 26.4,28.2 2.2,7.5 1.7,11.7 1.3,17.5 -0.9,13.3 -8.3,39 -8.3,39 -7.9,37.3 -20.8,62.7 -27.6,76.2 -21.5,38.8 -28.3,50.9 -30.5,54.9 -2.2,4 -42.9,68.9 -50.4,81.4 -7.6,12.5 -15.7,25 -18.1,27.8 z m -13.6,15.8 c 6,2.9 6.9,2.9 13,0 7.2,-3.4 11.7,-9.2 27.6,-35.4 7.6,-12.7 21.4,-34.8 30.5,-49.2 19.4,-30.2 16.3,-28.6 24.6,-12.7 6.15372,11.245 23.51119,44.85261 35.45191,37.21031 11.59566,-17.43506 5.46443,-62.2347 1.44809,-85.61031 -3.6,-20.8 -5.4,-29.1 -6.2,-30.6 -1.2,-2.5 -1.2,-2.7 0.7,-6.5 6.6,-13 23.7,-61 31.1,-92.8 2.8,-25.8 2.9,-32.4 1.2,-38.5 -1.8,-7 -4.8,-14 -9.5,-19.5 -6.4,-7.7 -11.4,-10.9 -24.2,-17.8 -8.1,-4.4 -14.5,-5.9 -23.6,-5.4 -17.83297,1.88732 -30.92971,2.93827 -43.7,14 -2.1972,1.90323 -1.6,3.7 -5.5,-17.1 -4.2,-22.2 -4.1,-23.6 3.5,-36.7 6.9,-12.1 13.98613,-26.04473 13.9,-40.3 -0.11564,-19.13835 -46.8,-16.6 -61.7,-25.7 -5.2,-5.6 -5.1,-4.9 -1.6,-21.9 3.9,-19.3 5.9,-37.3 5.2,-47.5 -0.6,-8.5 -1.8,-12.5 -4.6,-14.3 -6.6,-4.2 -32.2,-1.4 -58.8,6.4 -12.7,3.7 -17.1,3.8 -21.7,0.2 -4.3,-3.2 -6,-6.4 -9,-17 C 577.3,53.6 568,32.6 562,24.3 553.19639,12.82519 545.59079,16.462535 537.7,20.5 522.6064,26.916596 495.39533,51.903255 482.7,52.1 477.8,52 470.5,50.1 467.9,48.2 453.47799,31.750339 438.19637,3.9710187 419.03063,2.334476 389.57538,8.1493537 378.04931,39.670088 357,52 c -4.5,2.6 -18.8,5.8 -21.3,5.8 -1.1,0 -8.3,-4.3 -16.1,-9.4 -14.6,-9.8 -24.4,-15 -30.9,-16.8 -5.6,-1.5 -9.4,-0.1 -14.2,5.2 -7.9,8.7 -13.1,18.4 -22.7,42.1 -6.1,15 -7.8,17.2 -17.7,23.1 -6.9,4 -9.1,3.9 -26,-1.6 -19.9,-6.4 -29.6,-8.6 -38.9,-8.8 -11.9,-0.1 -14.6,2.1 -17.5,15 -1.8,8 -2.5,39.6 -1.3,53.5 1.7,18.3 -1,20.1 -23.5,15.4 -13.8,-2.9 -24.5,-4.1 -30,-3.4 -10.8,1.3 -12.8,4.1 -12,16.8 0.9,14.1 3.9,27.2 11.5,50.3 3.5,10.8 4.3,14.1 3.9,16.9 -0.2,1.9 -0.6,3.4 -0.7,3.4 -0.1,0 -4.2,-1 -9,-2.2 -7.5,-1.9 -10.6,-2.2 -20.6,-2.2 -9.2,0 -12.9,0.3 -16.7,1.5 -6.2,1.9 -17.5,7.8 -23,12.1 -5.3,4 -12.3,13.4 -16.6,22.1 -3.1,6.3 -3.634581,11.53807 -3.7,17.5 -0.1894428,17.26476 5.092379,34.23299 9.6,50.9 6.983091,25.8201 21.355016,52.96146 26.9,75.6 -3.735904,10.74416 -5.612391,22.44784 -8.2,34.2 -4.3,19.6 -10.2,59.9 -2.5,77.8 2.3,5.3 11.6,5.2 17.4,1.6 3.6,-2.2 8,-8.8 16.2,-24.1 C 76.1,511.8 82.1,502 83,502 c 1.1,0 13.4,19.4 17.7,28 45,72.7 49.4,78.6 56.5,82.3 24.69991,9.52742 26.39501,-19.73663 26.4,-37 0.5,-24.5 -0.4,-37 -4.2,-60.8 -2.4,-14.7 -3.84301,-34.16147 -6.1,-51.2 -1.91096,-14.4263 -5.83616,-36.8645 -6.3,-43.2 0.2,-0.2 3.6,0.7 7.6,2 8,2.7 8.3,3 8.4,10.1 0.1,7.7 2.14278,36.58271 3.4,41.2 4.25463,16.13805 18.25364,34.68668 24.9119,41.01999 -2.76447,13.69997 0.10215,31.66167 7.7881,44.68001 9.89077,16.75283 27.44522,29.30962 45.50248,36.54977 18.73116,7.51035 40.48715,8.9342 60.31875,5.19663 C 335.90887,598.7756 349.82734,592.65056 355,586 c 7,-9 11,-19 10,-26 l -6,1.9 c -4.5,1 -14,3.1 -20,1.1 -9.35986,-3.11995 -18.02404,-7.84087 -24.78942,-15.02213 -4.074,-4.32443 -9.78396,-16.20817 -8.17695,-15.83732 0.99369,0.22931 8.12582,0.68194 12.06637,1.65945 9.53886,2.36624 20.2474,6.58872 27.7,10.1 7.4526,3.51128 17.2,10.1 17.2,10.1 1,-9 -1.1,-13.5 -2.2,-18.4 -3,-13 -10.6,-27.8 -18.9,-36.8 -15.02938,-14.58479 -31.95509,-16.75271 -47.4,-16.5 -23.16392,-0.30285 -41.28784,4.60561 -60.6,11.3 -5.86443,-5.30461 -11.90134,-11.52738 -16.1,-17.1 0.85196,-11.82679 1.31971,-25.10936 3.7,-35.4 26.92534,7.85163 71.99314,32.32912 110.46855,39.01365 49.60132,8.61749 104.35618,6.83226 151.03145,0.68635 46.67527,-6.14591 89.40706,-24.17363 127.79185,-36.54222 1.52449,6.07386 1.65229,21.44827 -0.94075,27.96525 -4.13642,9.85655 -14.12503,17.58762 -21.06543,24.17854 -2.3,-2 -16.48298,-6.61302 -23.1857,-8.20157 -12.85975,-3.04776 -25.3405,-6.47596 -35.4,-6.2 -19.02239,0.52183 -33.55131,4.62935 -46.1,10.74895 C 471.55128,498.86855 461.9,508.2 457,515 c -9,13 -16,42 -9.10003,52.8 C 454.59997,558.4 474,549 480,546 c 9,-4.2 12.99997,-5 23.69997,-7.4 1.9,-0.5 2,-0.4 1.7,1.3 -1.7,8.7 -10.3,17.6 -17.4,24.2 -10.6,6.9 -29.8,14.2 -45.4,10.9 2.1,5.1 5.3,10 5.3,10 8.3,12.9 25.9257,19.40694 40.6257,21.10694 18.8,2 62.4743,-2.00694 86.9743,-24.20694 16.6,-14.6 27.2,-29.1 24.9,-55.5 0,0 -1.4,-5.6 0,-7.8 1.6,-2.4 5.5,-2.2 8,-3.7 10.8,-6.9 23,-13.5 29.9,-24.3 5.77579,-15.69605 6.67799,-31.93193 11.4,-48.3 1.4,-4.5 1.80003,-11.4 4.30003,-15.3 l 18.99997,-10.7 c -2.14847,14.43073 -6.89719,29.7752 -9.1,43.8 -1.4,8.9 -2,16.7 -3.3,26.8 -1.3,10.1 -2.8,17.5 -4.5,33.8 -1.7,16.3 -5.8,47.8 -5.1,64.3 0.7,16.5 0.8,26.9 5.3,34 1.7,2.7 3.5,4.2 7.2,5.9 z" />
      <path
         id="black_zip"
         fill="#020101"
         d="m 408,605 c 0,0 -1,-8 0,-9 1,-1 6.41623,-10e-4 8,0 0.6167,-1.6401 1.2699,-2.661 2.1761,-4.8375 C 416.1625,590.2148 409,589 408,587 c -1,-2 1.06364,-7.53182 4,-9 2,-1 8,5 11,6 1,-2 1.1316,-2.2998 2,-5 -1.8684,-1.2998 -9.96458,-3.464 -11,-7 -1.06982,-3.65348 3.31454,-9.11214 6,-10 1.81534,-0.60018 9,4 11,5 1,-1 0.8654,-1.9834 2,-3 0,0 -6,-3 -7.8537,-7.4496 C 426,552 429,546 435,542 c 3.00895,0 8.01701,1.31114 12,3 2.00331,0.84944 3.27443,8.85286 5,10 2.82503,1.87804 5.87629,-2.83161 8,0 -4,9 -14.20148,24.95173 -20,35 -5,10 -5,20 -5,25 0,0 1,114 0,115 -1,1 -17,1 -17,1 0,0 0,8 -1,9 -1,1 -18,1 -19,0 -1,-1 -1,-9 -1,-9 0,0 -16,0 -17,-1 -1,-1 0.2601,-79.8931 0,-115 -0.0352,-4.7541 0,-10 -5,-20 l -27,-41 c -2.63415,-4 21.17564,-15.86699 27,-15 4.62422,0.68834 8.98859,9.25743 10,15 0.42179,2.39487 -8.4291,6.0207 -9.729,7.1762 1.4226,1.9273 2.1386,3.5503 3.1731,5.4611 1.8485,-0.872 9.46793,-6.16275 11.5559,-4.6373 4.70826,3.43981 8.03346,9.14644 7,12 -1.27479,3.51991 -6.6517,5.6296 -9,7 1.2359,2.9166 2.1678,4.8094 3,6 2.3017,-0.8193 8.99319,-3.8683 10,-3 1.74096,1.50145 5.43521,8.92397 4,11 -1.79827,2.6012 -7.4278,3.2076 -9.013,3.875 0.6144,1.7063 2.013,5.125 2.013,7.125 1.9296,0.0545 8.1159,-0.9185 10,-1" />
      <path
         id="grey_block_zip"
         fill="#41423e"
         d="m 362,567 c 2.42514,0.0119 10,-4.76393 10,-7 0,-2 -6,-10 -8,-10 -2,0 -8.40273,4.13819 -9.11676,5.86454 C 354,558 360.20537,566.99116 362,567 Z m 86,1 c 1.98369,-0.32025 8.49594,-9.86679 8,-13 -0.19253,-1.21635 -2.90197,0.88291 -5,0 -1.71145,-0.72022 -2.7293,-4.63535 -4,-4 -2,1 -5.78542,6.16719 -7,11 -0.44532,1.77193 5.87002,6.34387 8,6 z m -8,15 c 1.72929,-0.19071 6.63765,-8.75981 6,-11 -0.5355,-1.88132 -7.93302,-6.59562 -10,-6 -2.10374,0.60621 -7.47427,10.56466 -7,12 0.40753,1.23338 8.40731,5.28593 11,5 z m -69,-2 c 2,0 9,-3 9,-5 0,-2 -3.84331,-9.48582 -5,-10 -1.75353,-0.77949 -9,3 -10,5 -0.63246,1.26491 4,10 6,10 z m 18,10 c 0.44721,-0.89443 -3.47018,-9.73509 -6,-11 -2,-1 -9,2 -10,4 -1,2 2.47018,8.73509 5,10 2,1 10,-1 11,-3 z m 44,5 c 1,0 6,-9 5,-10 -2.02005,-2.02005 -8.69556,-5.46468 -11,-4 -2.26246,1.438 -6,9 -5,11 0.99837,1.99675 8,3 11,3 z m -48,25 c 1,1 10,0 11,-1 1,-1 1,-9 0,-10 -1,-1 -10,0 -11,1 -1,1 -1,9 0,10 z m 45,-1 c 1,-1 1,-9 0,-10 -1,-1 -10,-1 -11,0 -1,1 -1,9 0,10 1,1 10,1 11,0 z m 0,15 c 1,-1 1,-9 0,-10 -1,-1 -10,-1 -11,0 -1,1 -1,9 0,10 1,1 10,1 11,0 z m -34,0 c 1,-1 1,-9 0,-10 -1,-1 -10,-1 -11,0 -1,1 -1,9 0,10 1,1 10,1 11,0 z m 0,15 c 1,-1 1,-9 0,-10 -1,-1 -10,-1 -11,0 -1,1 -1,9 0,10 1,1 10,1 11,0 z m 23,0 c 1,1 10,1 11,0 1,-1 1,-9 0,-10 -1,-1 -10,-1 -11,0 -1,1 -1,9 0,10 z m 11,45 c 1,-1 1,-9 0,-10 -1,-1 -10,-1 -11,0 -1,1 -1,9 0,10 1,1 10,1 11,0 z m -34,0 c 1,-1 1,-9 0,-10 -1,-1 -10,-1 -11,0 -1,1 -1,9 0,10 1,1 10,1 11,0 z m 23,15 c 1,1 10,1 11,0 1,-1 1,-9 0,-10 -1,-1 -10,-1 -11,0 -1,1 -1,9 0,10 z m -34,0 c 1,1 10,1 11,0 1,-1 1,-9 0,-10 -1,-1 -10,-1 -11,0 -1,1 -1,9 0,10 z m 11,5 c -1,-1 -10,-1 -11,0 -1,1 -1,9 0,10 1,1 10,1 11,0 1,-1 1,-9 0,-10 z m 34,10 c 1,-1 1,-9 0,-10 -1,-1 -10,-1 -11,0 -1,1 -1,9 0,10 1,1 10,1 11,0 z m 0,-45 c 1,-1 1,-9 0,-10 -1,-1 -10,-1 -11,0 -1,1 -1,9 0,10 1,1 10,1 11,0 z m 0,-15 c 1,-1 1,-9 0,-10 -1,-1 -10,-1 -11,0 -1,1 -1,9 0,10 1,1 10,1 11,0 z m -34,0 c 1,-1 1,-9 0,-10 -1,-1 -10,-1 -11,0 -1,1 -1,9 0,10 1,1 10,1 11,0 z m 0,15 c 1,-1 1,-9 0,-10 -1,-1 -10,-1 -11,0 -1,1 -1,9 0,10 1,1 10,1 11,0 z m -12,-73 c 1,1 10,0 11,-1 1,-1 -3,-10 -4,-11 -1,-1 -10,1 -11,2 -1,1 3,9 4,10 z m 47,0 c 1,-1 2,-7 1,-8 -1,-1 -11,-3 -12,-2 -1,1 -2,9 -1,10 1,1 11,1 12,0 z" />
      <path
         id="black_eyes_mouth"
         fill="#020101"
         d="M504.1123 346.4883C477.7836 339.6662 463.8401 310.4927 469.6016 284.9158 474.0029 257.6713 492.1549 225.3571 523.3627 225.4923 551.7408 227.5347 564.2453 260.1577 563.3354 284.9452 565.2726 310.2435 551.421 336.6666 526.4049 344.6569 519.3116 347.1484 511.5108 348.2063 504.1123 346.4883ZM286.3729 341.74C261.9899 337.1216 248.3522 312.8116 247.03 289.6675 245.9294 257.0424 268.9708 219.4246 303.9085 217.3876 333.9417 217.9586 348.4164 252.0518 346.4951 278.2367 346.9046 310.0229 321.9752 347.6996 286.3729 341.74ZM398.8393 396.8282C375.5098 395.3465 330.3755 381.0207 337.2135 363.3554 354.1358 367.5326 378.3571 382.1291 401.3172 383.2439 424.2773 384.3586 451.4387 372.5178 470.6564 368.9125 476.6113 387.1849 424.4716 398.456 398.8393 396.8282Z" />
      <path
         id="grey"
         fill="#cbc5c2"
         d="m 400,731 c 1,-1 4,-1 4,-1 0,0 -1,-16 0,-17 1,-1 6,-1 7,0 1,1 0,17 0,17 0,0 3.05719,0.0572 4,1 1,1 1,6 0,7 -1,1 -14,1 -15,0 -1,-1 -1,-6 0,-7 z m 8,-29 c 1,-1 7,-1 8,0 1,1 1,5 0,6 -1,1 -7,1 -8,0 -1,-1 -1,-5 0,-6 z m -9,0 c -1,-1 -1,-5 0,-6 1,-1 7,-1 8,0 1,1 1,5 0,6 -1,1 -7,1 -8,0 z m 9,-6 c -1,-1 -1,-5 0,-6 1,-1 7,-1 8,0 1,1 1,5 0,6 -1,1 -7,1 -8,0 z m 2,-92 c -1,-1 -1,-5 0,-6 1,-1 4,-1 5,0 1,1 1,5 0,6 -1,1 -4,1 -5,0 z m -17,-15 c 1,-1 6,-3 7,-3 1,0 3.70711,7.29289 3,8 -1,1 -6.29289,3.70711 -7,3 -1,-1 -4,-7 -3,-8 z m 17,-3 2,-6 c 2,1 4,2 8,5 -1,2 0,1 -2,4 -3,-1 -6,-1 -8,-3 z m -28,-18 c 0.5638,-1.57865 6,-3 7,-3 1,0 6,7 5,9 -0.44721,0.89443 -4.58579,4 -6,4 -1,0 -6.5,-8.6 -6,-10 z m 34,3 c 0.35716,-2.51787 1,-5 4,-7 3,1 7,2 10,5 -1,3 -3.55753,6.7495 -5,7 -1.54269,0.26791 -9.14982,-3.94385 -9,-5 z m 13,-15 c 1,-3 4.95438,-10.76316 7,-11 2.22617,-0.25774 5,1 8,4 -2,5 -6,9 -8.4,11.3 C 432,559 431,558 429,556 Z m -30,134 c -1,-1 -1,-5 0,-6 1,-1 7,-1 8,0 1,1 1,5 0,6 -1,1 -7,1 -8,0 z m 9,-6 c -1,-1 -1,-5 0,-6 1,-1 7,-1 8,0 1,1 1,5 0,6 -1,1 -7,1 -8,0 z m -9,-6 c -1,-1 -1,-5 0,-6 1,-1 7,-1 8,0 1,1 1,5 0,6 -1,1 -7,1 -8,0 z m 9,-6 c -1,-1 -1,-5 0,-6 1,-1 7,-1 8,0 1,1 1,5 0,6 -1,1 -7,1 -8,0 z m -9,-6 c -1,-1 -1,-5 0,-6 1,-1 7,-1 8,0 1,1 1,5 0,6 -1,1 -7,1 -8,0 z m 9,-6 c -1,-1 -1,-5 0,-6 1,-1 7,-1 8,0 1,1 1,5 0,6 -1,1 -7,1 -8,0 z m -9,-46 c -1,-1 -1,-5 0,-6 1,-1 8,-1 9,0 1,1 1,5 0,6 -1,1 -8,1 -9,0 z m 0,40 c -1,-1 -1,-5 0,-6 1,-1 7,-1 8,0 1,1 1,5 0,6 -1,1 -7,1 -8,0 z M 368,546 c 0,-2 5,-4 6,-4 2.23607,0 7,9 8,11 0.44721,0.89443 -5.21115,4.89443 -7,4 -2,-1 -7,-9 -7,-11 z m 30,162 c 1,-1 7,-1 8,0 1,1 0.66465,2.33535 0,3 -1,1 -7,1 -8,0 -0.4714,-0.4714 -1,-2 0,-3 z" />
      <path
         id="white_eyes"
         fill="#fefefe"
         d="m 500.94161,333.18774 c -9.12,2.43702 -19.87483,-7.08935 -22.51146,-15.88706 -3.14847,-10.50556 1.35361,-28.06369 12.01665,-30.6287 9.83812,-2.36658 20.65619,10.22058 22.72601,20.12538 1.98327,9.49066 -3.1112,23.95336 -12.2312,26.39038 z M 302.04138,322.80287 c -7.70783,-6.41014 -10.20985,-21.27975 -4.69096,-29.70691 5.51889,-8.42716 21.45314,-13.93208 29.38732,-7.64693 8.04845,6.37567 5.5964,22.7063 -0.72859,30.79463 -5.10239,6.52488 -16.61059,12.67773 -23.96777,6.55921 z" />
      <path
         id="zip_handle"
         fill="#a9a9a9"
         stroke="#000000"
         stroke-width="1"
         stroke-dasharray="none"
         d="m 407,680 c -6,0 -10.8639,-0.932 -15,-3 -6,-17 7,-48 6,-64 2,-1 17,-1 19,0 -1,16 12,47 6,64 -4,2 -9,3 -16,3 m -8,-37 c 8,1 9,1 17,0 0,-7 -0.6667,-16 -2,-28 -4,-0.6667 -8.3333,-0.6667 -13,0 0,0 -2,21 -2,28 z m 20,20 c 0,-6 -5,-10 -12,-10 -6,0 -11,4 -11,10 0,7 5,10 11,10 7,0 12,-3 12,-10 z m -16,-22 c -1,-1 -1,-23 0,-24 1,-1 8,-1 9,0 1,1 1,23 0,24 -1,1 -8,1 -9,0 z" />
      <path
         id="border_up"
         fill="#ca5224"
         d="m 457,515 c -9,13 -16,42 -9.1,52.8 6.7,-9.4 26.1,-18.8 32.1,-21.8 -2.13463,0.054 -19.13593,2.24394 -20,3 -8,7 -9,6 -6,-3 0,0 0,-8 3,-31 z m -102,54 c 2,1 -5,15 0,17 7,-9 11,-19 10,-26 l -6,1.9 c -4.5,1 -14,3.1 -20,1.1 5,4 16,6 16,6 z" />
   </g>
   <metadata
      id="metadata_zip_crab">
      <rdf:RDF
         xmlns:rdf="http://www.w3.org/1999/02/22-rdf-syntax-ns#"
         xmlns:rdfs="http://www.w3.org/2000/01/rdf-schema#"
         xmlns:dc="http://purl.org/dc/elements/1.1/">
         <rdf:Description
            dc:title="Zip crab"
            dc:description="Zip crab logo"
            dc:publisher="n4n5"
            dc:date="2025-12-24"
            dc:format="image/svg+xml"
            dc:language="en">
            <dc:creator>
               <rdf:Bag>
                  <rdf:li>n4n5 - https://n4n5.dev</rdf:li>
               </rdf:Bag>
            </dc:creator>
         </rdf:Description>
         <cc:Work
            rdf:about="">
            <cc:license
               rdf:resource="http://creativecommons.org/licenses/by-sa/4.0/" />
            <cc:license
               rdf:resource="https://creativecommons.org/publicdomain/zero/1.0/" />
         </cc:Work>
         <cc:License
            rdf:about="http://creativecommons.org/licenses/by-sa/4.0/">
            <cc:permits
               rdf:resource="http://creativecommons.org/ns#Reproduction" />
            <cc:permits
               rdf:resource="http://creativecommons.org/ns#Distribution" />
            <cc:requires
               rdf:resource="http://creativecommons.org/ns#Notice" />
            <cc:requires
               rdf:resource="http://creativecommons.org/ns#Attribution" />
            <cc:permits
               rdf:resource="http://creativecommons.org/ns#DerivativeWorks" />
            <cc:requires
               rdf:resource="http://creativecommons.org/ns#ShareAlike" />
         </cc:License>
         <cc:License rdf:about="https://creativecommons.org/publicdomain/zero/1.0/">
         </cc:License>
      </rdf:RDF>
   </metadata>
</svg>